ply
format ascii 1.0
comment Exported by Aspose.3D 23.4.0
element vertex 254
property float x
property float y
property float z
property float nx
property float ny
property float nz
property float u
property float v
element face 504
property list uchar int vertex_index
end_header
-2.276385545730591 0.9951139092445374 -0.8431330919265747 -0.6327707767486572 0.7603991627693176 -0.14618365466594696 0.1447499692440033 0.6850318908691406
-2.5296294689178467 0.6824906468391418 -0.7772554159164429 -0.8669087886810303 0.4980010390281677 -0.020050659775733948 0.16584111750125885 0.5913976430892944
-0.19693386554718018 0.8149940967559814 3.39772891998291 -0.3791619539260864 0.5271462202072144 0.7604601979255676 0.7089415192604065 0.6087014079093933
-0.8434740900993347 1.5197277069091797 1.092299222946167 -0.5773186683654785 0.7319864630699158 0.36170536279678345 0.4862643778324127 0.9470445513725281
-2.194047451019287 1.0777716636657715 -0.4985274076461792 -0.6467482447624207 0.7577440738677979 0.08664204925298691 0.19009092450141907 0.7229986786842346
-2.0740396976470947 1.0808497667312622 -0.12399347871541977 -0.6077761054039001 0.7620776891708374 0.2232123762369156 0.24485303461551666 0.7495124936103821
-1.1176484823226929 0.6511751413345337 -1.7752810716629028 0.1830500215291977 0.6861781477928162 -0.7040009498596191 -0.07001666724681854 0.7078706622123718
-1.946315884590149 0.9026827812194824 -1.5447192192077637 -0.30576494336128235 0.7108981609344482 -0.6332895755767822 0.03179381415247917 0.6764094233512878
-2.0123705863952637 0.39426887035369873 -1.7239552736282349 -0.4263130724430084 0.30640584230422974 -0.8510696887969971 0.004892028868198395 0.556037962436676
-1.4711735248565674 -0.6861920356750488 1.8836109638214111 -0.2059083878993988 -0.9768364429473877 -0.05813775956630707 0.5367538332939148 0.11961762607097626
0.2610399127006531 -0.7953699827194214 1.8811873197555542 -0.07510605454444885 -0.9699087738990784 -0.23145237565040588 0.8997728824615479 0.07935628294944763
-1.7983343601226807 1.175045132637024 0.17845988273620605 -0.5427716970443726 0.7791985869407654 0.31333354115486145 0.2829399108886719 0.8137218356132507
0.9064590930938721 -0.6309886574745178 0.2936667203903198 -0.1191137433052063 -0.9922788143157959 -0.033845026046037674 1.235335111618042 0.12183237075805664
1.2648168802261353 -0.9087284803390503 2.5456912517547607 0.300210565328598 -0.9272133708000183 0.22388377785682678 0.9881635904312134 0.319522887468338
1.625835657119751 0.8509746789932251 2.587625026702881 0.7328714728355408 0.539597749710083 0.4143803119659424 0.935738205909729 0.7282323241233826
0.7194235324859619 0.5368489623069763 -1.297340750694275 0.28205206990242004 0.7521896958351135 -0.5954771637916565 -0.2774108350276947 0.770743727684021
1.4295413494110107 0.2808474898338318 -0.738709032535553 0.7699514627456665 0.4841151237487793 -0.41566210985183716 0.5872795964990343 0.6734800934791565
-1.5787873268127441 0.671816885471344 -1.8302571773529053 -0.1669362485408783 0.5241858959197998 -0.8350474834442139 -0.026485877111554146 0.6505088806152344
-2.9226419925689697 -0.5115081667900085 -1.142584204673767 -0.8921476006507874 -0.3748588562011719 -0.251991331577301 0.11262325942516327 0.3702218234539032
1.1314008235931396 1.5145076513290405 1.4644711017608643 0.3657948672771454 0.9259926080703735 -0.09332560002803802 0.9236772656440735 0.9879553318023682
-2.4979946613311768 -0.4863094985485077 -0.2024715095758438 -0.574022650718689 -0.791589081287384 0.20941801369190216 0.2053355872631073 0.2458559274673462
-0.8189740777015686 1.433430552482605 -0.5841197371482849 0.10248115658760071 0.9029816389083862 -0.41718801856040955 0.07408458739519119 1.0574637651443481
-0.5492623448371887 -0.8895323276519775 -0.787491500377655 0.07684560865163803 -0.9739982485771179 -0.21304970979690552 -0.06459499150514603 -0.003269249340519309
-2.421617269515991 0.45783352851867676 -1.3908698558807373 -0.7693105936050415 0.28327280282974243 -0.5725882649421692 0.07686944305896759 0.544623851776123
-2.7958106994628906 -0.08456829935312271 -0.48397091031074524 -0.9886165857315063 -0.0004882961511611938 0.1502731442451477 0.18779845535755157 0.41689059138298035
1.2244231700897217 -0.12296721339225769 3.4216067790985107 0.5188757181167603 -0.07809686660766602 0.8512527942657471 0.89348965883255 0.5036470890045166
2.004073143005371 -0.5883719325065613 2.0983080863952637 0.8783837556838989 -0.44727927446365356 0.16840113699436188 1.06496000289917 0.4588864743709564
-0.7121751308441162 1.78079092502594 0.3479085862636566 -0.252052366733551 0.964262843132019 -0.08136234432458878 0.36786454916000366 1.0729464292526245
-0.17775210738182068 1.8331111669540405 0.8439568877220154 0.040070801973342896 0.9988707900047302 0.02462843805551529 0.5816696882247925 1.0907294750213623
1.0370721817016602 -0.19484926760196686 -1.5003957748413086 0.5727713704109192 -0.25055697560310364 -0.7804498672485352 -0.30985715985298157 0.5353326797485352
1.34273099899292 -0.38133111596107483 -1.1537420749664307 0.6558122634887695 -0.4985503554344177 -0.5668507814407349 -0.36249881982803345 0.4690222442150116
1.9020118713378906 -0.19753499329090118 0.021533377468585968 0.9370708465576172 -0.10580766946077347 -0.3326517641544342 1.2432477474212646 0.584604024887085
1.9566336870193481 -0.7747731804847717 1.233151912689209 0.6234931349754333 -0.7813043594360352 -0.02780236303806305 1.1509896516799927 0.4011661112308502
0.49159368872642517 0.3449326157569885 -1.5438560247421265 0.18774986267089844 0.5976439714431763 -0.7794427275657654 -0.24346326291561127 0.7006258368492126
1.0488009452819824 0.2954181134700775 -1.4022667407989502 0.5677358508110046 0.48182621598243713 -0.6674093008041382 -0.31851983070373535 0.6751477122306824
0.36458176374435425 -0.5972528457641602 0.47141045331954956 0.05710013210773468 -0.9983214735984802 0.007751701399683952 1.246010422706604 -0.0506473146378994
0.06670607626438141 -0.11082560569047928 -1.8324785232543945 0.20230719447135925 -0.0556352436542511 -0.9777215123176575 -0.2152778059244156 0.507267951965332
0.9868467450141907 0.956028938293457 -0.3937491774559021 0.46293526887893677 0.7860957384109497 -0.40949735045433044 0.9595608830451966 0.9850127100944519
-0.10326487571001053 0.34905195236206055 -1.6529306173324585 0.24381236732006073 0.5678579211235046 -0.7861567735671997 -0.17883948981761932 0.7194538116455078
0.7308855652809143 1.1670640707015991 2.9000022411346436 0.17966246604919434 0.7788018584251404 0.6009705066680908 0.8018786311149597 0.7466338872909546
-1.9717180728912354 0.9064460396766663 0.42589637637138367 -0.6064332723617554 0.6999419927597046 0.37717825174331665 0.3184826076030731 0.7165189385414124
1.2077362537384033 -0.8972892761230469 1.2690277099609375 -0.06830042600631714 -0.9904477000236511 -0.11966307461261749 1.0930814743041992 0.1721043735742569
0.3396320343017578 0.715985894203186 -1.2070919275283813 0.23505355417728424 0.7564012408256531 -0.6103701591491699 -0.22223393619060516 0.8800767064094543
0.3474017381668091 -0.7020213603973389 -0.8185223340988159 0.1421552151441574 -0.982543408870697 -0.11975462734699249 -0.28894466161727905 0.1354789137840271
-0.5774028301239014 -0.08914228528738022 -2.1085331439971924 0.1590929925441742 -0.15411847829818726 -0.9751273989677429 -0.16032364964485168 0.5003677010536194
0.7062042355537415 -0.6645861268043518 -0.7417832016944885 0.1349223256111145 -0.9876705408096313 -0.0791650116443634 0.36639045476913457 0.2489301770925522
-0.36206141114234924 -0.7364605069160461 0.23106005787849426 0.08624530583620071 -0.9768059253692627 0.19595934450626373 0.5188621878623962 -0.20408761501312256
-0.037826817482709885 -0.6383563280105591 -1.1633050441741943 0.05890072137117386 -0.940122663974762 -0.33561205863952637 -0.2227315604686737 0.19362686574459076
1.5613164901733398 -0.7920675873756409 0.5808188319206238 0.12311166524887085 -0.9786065220832825 -0.16470839083194733 1.1775693893432617 0.26431408524513245
-2.471503734588623 0.23645444214344025 0.5993217825889587 -0.8301644921302795 0.460585355758667 0.31403547525405884 0.31609949469566345 0.45144975185394287
1.958888292312622 0.3141012191772461 2.3998665809631348 0.9347209334373474 0.20123904943466187 0.2928556203842163 1.0108577013015747 0.6485418081283569
0.8628467917442322 -0.5601435899734497 -1.2574093341827393 0.2839137017726898 -0.8565019965171814 -0.431012898683548 -0.3090052604675293 0.4001668393611908
1.050957441329956 -0.651883065700531 -0.2998203933238983 0.07312235236167908 -0.9937132000923157 -0.08453626930713654 1.3298250436782837 0.2469235062599182
0.5564345121383667 -0.6638087630271912 -0.27060163021087646 0.050294503569602966 -0.9978637099266052 0.04095584154129028 0.8219657455171857 0.12315008576427186
-1.6059645414352417 -0.4930357336997986 0.2817643880844116 -0.1420941799879074 -0.9792168736457825 0.14456617832183838 0.25274693965911865 0.03649602830410004
-0.9876766800880432 1.6036378145217896 -0.07085619866847992 -0.21158482134342194 0.9624927639961243 -0.16971343755722046 0.22307124733924866 1.0436396598815918
0.1051880344748497 -0.7046982049942017 0.007763325236737728 0.21146275103092194 -0.9671925902366638 0.14062929153442383 1.3857580423355103 -0.09385573118925095
-1.8919540643692017 0.21989718079566956 2.2866079807281494 -0.7711111903190613 0.5512558221817017 0.3185521960258484 0.49631813168525696 0.4302442967891693
-1.5590516328811646 -0.8307504653930664 -0.9783338904380798 -0.047242652624845505 -0.9979247450828552 -0.043336283415555954 0.015238541178405285 0.1603618860244751
-1.3001277446746826 1.2959644794464111 -0.966806173324585 -0.037690360099077225 0.8956877589225769 -0.443037211894989 0.06695699691772461 0.8952467441558838
-0.1725292205810547 1.3260986804962158 -0.5497086644172668 0.2456434816122055 0.8485671281814575 -0.4685811996459961 -0.05702156626752444 1.1940281391143799
-2.2844107151031494 0.7595521211624146 -1.470455527305603 -0.6139103174209595 0.5139011740684509 -0.599139392375946 0.061030834913253784 0.6119000911712646
-0.7310291528701782 -0.45742204785346985 -1.6732209920883179 0.14407788217067719 -0.8176214098930359 -0.557390034198761 -0.14433817565441132 0.3158833086490631
0.2667625844478607 -0.5351690053939819 -1.6022145748138428 0.08438368141651154 -0.790551483631134 -0.6065248847007751 -0.2535231411457062 0.35922718048095703
1.7111719846725464 -0.6555492281913757 0.008148218505084515 0.5540635585784912 -0.7840204834938049 -0.2797936797142029 1.255042552947998 0.32677480578422546
-2.5096263885498047 -0.17307162284851074 1.1170258522033691 -0.9536423683166504 0.05325479805469513 0.29615160822868347 0.35083386301994324 0.30014941096305847
-1.5896961688995361 -0.11670772731304169 -2.008026361465454 -0.23438215255737305 -0.0020447401329874992 -0.9721366167068481 -0.054729118943214417 0.4633899927139282
0.6148938536643982 -0.10324345529079437 -1.7817357778549194 0.317361980676651 -0.055940426886081696 -0.9466231465339661 -0.2569953501224518 0.5669313073158264
0.4601517617702484 1.0479873418807983 -0.625256359577179 0.3252662718296051 0.8241828680038452 -0.46354565024375916 0.2682841143437794 1.0720134973526
0.7645046710968018 -0.7509467005729675 3.366568088531494 0.31296730041503906 -0.7017425894737244 0.6399426460266113 0.8788324594497681 0.3735988140106201
0.9907281398773193 1.3196476697921753 0.5401857495307922 0.431104451417923 0.843775749206543 -0.3195593059062958 1.1047706604003906 1.0954195261001587
1.0461300611495972 1.5249537229537964 2.1710474491119385 0.34665974974632263 0.8943144083023071 0.28284555673599243 0.8515522480010986 0.8864603042602539
-0.3888311982154846 -0.6922403573989868 1.4827131032943726 -0.007843256928026676 -0.9936216473579407 -0.11236914992332458 0.7368105053901672 -0.019235044717788696
-1.0228631496429443 -0.8558080196380615 2.410191535949707 -0.19962157309055328 -0.9729911088943481 -0.11581774055957794 0.6520229578018188 0.15560002624988556
-0.2199021726846695 -0.9273833632469177 -0.4479133188724518 0.16434217989444733 -0.9862666726112366 0.016357921063899994 0.42044340712683537 -0.11800670623779297
1.57467520236969 -0.17638437449932098 -0.8644497394561768 0.903958261013031 0.008850367739796638 -0.4274727702140808 0.177224596341451 0.5230212807655334
-1.2417658567428589 1.0904444456100464 1.224604606628418 -0.5930967330932617 0.7109591960906982 0.37778863310813904 0.4476340711116791 0.8177794814109802
1.409374713897705 0.6808373928070068 -0.20651111006736755 0.6729636788368225 0.6316110491752625 -0.38489943742752075 1.3133553266525269 0.8470579385757446
2.1903269290924072 -0.2614675760269165 0.9724077582359314 0.9880062341690063 -0.11374248564243317 -0.10428174585103989 1.1649689674377441 0.5731509923934937
1.2524173259735107 1.0450540781021118 2.795659065246582 0.4753563106060028 0.6929532885551453 0.5420392751693726 0.8677252531051636 0.7397158741950989
-1.9093236923217773 -0.6310591101646423 1.322808027267456 -0.12219610810279846 -0.9923093318939209 -0.018738364800810814 0.42549437284469604 0.13236024975776672
1.639362096786499 -0.8728448748588562 1.8632447719573975 0.35450300574302673 -0.9346904158592224 0.02551347389817238 1.0805667638778687 0.33421576023101807
0.308376282453537 1.258798360824585 2.833977222442627 0.014465773478150368 0.887569785118103 0.4604022204875946 0.7439652681350708 0.7581450343132019
-2.4494073390960693 -0.4475783705711365 0.6518703103065491 -0.6058534383773804 -0.7947630286216736 0.03561510145664215 0.29222533106803894 0.22462669014930725
-2.462188482284546 0.7275041341781616 -1.1427134275436401 -0.8025452494621277 0.5266579389572144 -0.28019043803215027 0.11644545197486877 0.5980353951454163
0.6612136363983154 -0.9841569662094116 2.5952577590942383 0.07419049739837646 -0.9971923232078552 -0.0066225165501236916 0.9274101257324219 0.23179298639297485
1.175060749053955 -0.5578306913375854 -0.7876223921775818 0.2631916403770447 -0.9443953037261963 -0.19696645438671112 0.3140860974788666 0.36720407009124756
-1.9807393550872803 -0.5257102847099304 1.939043402671814 -0.6787927150726318 -0.6832484006881714 0.269051194190979 0.4705919623374939 0.22060838341712952
-0.4350012242794037 1.4229183197021484 1.715735912322998 -0.4279305338859558 0.82619708776474 0.3664052188396454 0.6046546101570129 0.9011672139167786
-0.9049795269966125 0.3898490369319916 3.334437370300293 -0.5632495880126953 0.52122563123703 0.6411023139953613 0.6319275498390198 0.5078828930854797
1.7482590675354004 0.00922319944947958 2.9381256103515625 0.82705157995224 0.006775109097361565 0.5620594024658203 0.9638238549232483 0.5606048703193665
-0.7436532974243164 0.793442964553833 -1.5030497312545776 0.2455824464559555 0.7083956599235535 -0.6616718173027039 -0.0915541723370552 0.8193045854568481
0.9712003469467163 0.6793560981750488 -0.8716663718223572 0.49714651703834534 0.7384868860244751 -0.45545822381973267 0.17170559508459907 0.835708498954773
1.869567632675171 1.0554490089416504 1.4932584762573242 0.826105535030365 0.5632495880126953 -0.016052735969424248 1.038007140159607 0.8621847629547119
-0.13560202717781067 1.3467190265655518 2.3453140258789062 -0.3322855234146118 0.8988006114959717 0.2858363687992096 0.6805757880210876 0.8201603293418884
-1.4900630712509155 1.258257508277893 0.4453083276748657 -0.5543382167816162 0.7704092264175415 0.31479841470718384 0.33215808868408203 0.8729379773139954
-0.022668585181236267 1.5519877672195435 0.0417996309697628 0.28052613139152527 0.8794518709182739 -0.38450270891189575 0.44708725810050964 1.2595293372869492
1.5787442922592163 -0.500845193862915 -0.5587450861930847 0.6592608690261841 -0.6737266182899475 -0.3338419795036316 0.7959652117320469 0.4176871180534363
-1.294236421585083 1.475382924079895 0.1924901157617569 -0.45838800072669983 0.8766441941261292 0.14597003161907196 0.2814819812774658 0.9503438472747803
-0.1239561140537262 -1.0819469690322876 2.8814165592193604 -0.058412425220012665 -0.9982909560203552 0.00119022186845541 0.8016124367713928 0.218949094414711
0.12374042719602585 1.6132501363754272 1.8071930408477783 -0.18091371655464172 0.9436628222465515 0.2769554853439331 0.7073216438293457 0.9429008364677429
-0.5021247863769531 1.699954867362976 0.0806877464056015 0.07577745616436005 0.921628475189209 -0.3805658221244812 0.3178248107433319 1.1376222372055054
-0.040573928505182266 1.0185856819152832 -0.9507574439048767 0.25089266896247864 0.7924131155014038 -0.555955708026886 -0.14207880198955536 1.0215834379196167
-2.2021327018737793 0.2236892133951187 1.1856765747070312 -0.7164525389671326 0.6111331582069397 0.33637499809265137 0.37709882855415344 0.4484064280986786
0.5837031602859497 1.65492582321167 1.515580415725708 0.17862483859062195 0.9834895133972168 0.028260139748454094 0.8085022568702698 1.0204441547393799
-0.058454111218452454 -0.6481501460075378 3.6317503452301025 0.03268532454967499 -0.4819483160972595 0.8755760192871094 0.7874036431312561 0.36635875701904297
1.4873586893081665 0.4226987659931183 3.144845485687256 0.6442457437515259 0.32090213894844055 0.6942045092582703 0.9073755145072937 0.6107027530670166
1.4025646448135376 1.2808324098587036 1.0514637231826782 0.5438703298568726 0.7956480383872986 -0.26670125126838684 1.0414578914642334 0.9927546381950378
1.9538525342941284 0.4708772599697113 0.7283423542976379 0.8942838907241821 0.39963987469673157 -0.20120853185653687 1.165626883506775 0.7972692847251892
1.1168256998062134 0.7080079317092896 3.2257747650146484 0.3906674385070801 0.5081331729888916 0.7675405144691467 0.860033392906189 0.6493169665336609
1.3292080163955688 1.039064884185791 0.3624446392059326 0.5792718529701233 0.7494125366210938 -0.32053589820861816 1.1652930974960327 1.012891411781311
1.8510823249816895 0.31693682074546814 0.09304461628198624 0.869533360004425 0.3633533716201782 -0.3343912959098816 1.237083077430725 0.759446382522583
0.48580700159072876 -0.05571650713682175 3.6885411739349365 0.2150334119796753 0.05264442786574364 0.9751579165458679 0.8137316107749939 0.484904408454895
1.5473648309707642 1.3160392045974731 1.7138527631759644 0.6067995429039001 0.7885677814483643 0.09958189725875854 0.9695704579353333 0.9046865105628967
0.5698403120040894 1.5862908363342285 2.2034056186676025 -0.002136295661330223 0.9516891837120056 0.30701619386672974 0.7799808382987976 0.887255072593689
1.8972911834716797 -0.6296166181564331 0.5512455701828003 0.7332682013511658 -0.6371654272079468 -0.2372203767299652 1.2095646858215332 0.38196057081222534
-1.2411658763885498 0.7080698013305664 2.1627326011657715 -0.5648670792579651 0.7871944308280945 0.24741356074810028 0.5149752497673035 0.6369814276695251
0.49599212408065796 1.4945034980773926 0.41671431064605713 0.37586596608161926 0.8836939334869385 -0.2788476347923279 1.0658117532730103 1.183257784162249
0.7636449337005615 1.2009036540985107 -0.002573993057012558 0.40049439668655396 0.8466444611549377 -0.3503830134868622 1.3010773658752441 1.1361241340637207
0.3209719657897949 1.6748064756393433 0.9162914156913757 0.31409651041030884 0.9414044618606567 -0.12268440425395966 0.7510285973548889 1.0968010425567627
-0.3764268159866333 1.1039468050003052 3.0897135734558105 -0.40812402963638306 0.8048951625823975 0.430738240480423 0.6721066832542419 0.6735075116157532
-0.011308500543236732 0.5095716118812561 3.6756365299224854 -0.013397625647485256 0.3410748541355133 0.939909040927887 0.7529494762420654 0.553084671497345
-0.7661401629447937 0.33342382311820984 -1.9429515600204468 0.2210455685853958 0.48011720180511475 -0.8488723635673523 -0.12854313850402832 0.6302239894866943
-2.628512382507324 0.45769643783569336 -0.43648773431777954 -0.9111300706863403 0.40845972299575806 0.05456709489226341 0.20611050724983215 0.5315334796905518
-2.539482831954956 0.03191698342561722 -1.5240294933319092 -0.7346720695495605 0.18091371655464172 -0.6538285613059998 0.07002237439155579 0.46333712339401245
-1.3279269933700562 1.4898864030838013 -0.5030114650726318 -0.18857386708259583 0.9580370187759399 -0.21573534607887268 0.14408016204833984 0.9486871957778931
-0.6038321852684021 -0.9531528949737549 2.559358835220337 -0.13803522288799286 -0.9807428121566772 -0.13806574046611786 0.7304860949516296 0.1584099531173706
-1.494931697845459 0.4313976466655731 2.5215020179748535 -0.5973998308181763 0.7068697214126587 0.3786431550979614 0.534360945224762 0.5125711560249329
-2.3984358310699463 -0.6225432753562927 -0.6159200072288513 -0.3234351575374603 -0.8961150050163269 0.3038422763347626 0.14055749773979187 0.2463402897119522
-1.202082633972168 -0.6430754065513611 3.2116892337799072 -0.5958128571510315 -0.5367290377616882 0.5973693132400513 0.6501051187515259 0.30324023962020874
-0.9234679341316223 -0.6864989399909973 0.6269513368606567 -0.1506088376045227 -0.9857478737831116 0.07489242404699326 0.42797499895095825 -0.11169671267271042
1.1519544124603271 0.99983811378479 -0.0881984755396843 0.5315408706665039 0.7791985869407654 -0.3320413827896118 1.2477753162384033 0.9977867007255554
1.776007890701294 -0.4080604612827301 2.7597758769989014 0.7774590253829956 -0.38370922207832336 0.4982756972312927 0.9955533742904663 0.48474785685539246
-0.16553160548210144 -0.40801870822906494 -1.694557547569275 0.07055879384279251 -0.7681203484535217 -0.6363719701766968 -0.20046977698802948 0.3620893955230713
-2.0696277618408203 0.07490900158882141 1.7408956289291382 -0.8548234701156616 0.40907010436058044 0.3192236125469208 0.43663856387138367 0.3896234333515167
-1.656577229499817 0.4559580087661743 1.9619719982147217 -0.6277962327003479 0.7538071870803833 0.19385357201099396 0.4717002511024475 0.5382418632507324
0.5093876719474792 0.7293765544891357 3.3983819484710693 0.31324198842048645 0.5097811818122864 0.8012329339981079 0.796866774559021 0.6296842098236084
0.8480926156044006 1.5127801895141602 0.9679328203201294 0.3419598937034607 0.9171117544174194 -0.20471815764904022 0.9550107717514038 1.0931143760681152
-2.1237070560455322 -0.6370764970779419 -1.7551275491714478 -0.38435012102127075 -0.598803699016571 -0.7025971412658691 0.004031576216220856 0.3560633361339569
-1.4885348081588745 -0.7572038769721985 -1.6577028036117554 0.12121951580047607 -0.885891318321228 -0.44770652055740356 -0.06773898005485535 0.2797713577747345
1.3211348056793213 0.06437640637159348 -1.144567847251892 0.7929319143295288 0.24863429367542267 -0.556230366230011 -0.36159029603004456 0.6030334830284119
-2.3185224533081055 -0.8052315711975098 -0.9637838006019592 -0.2560808062553406 -0.9634388089179993 0.07864619791507721 0.08113612979650497 0.256936252117157
-0.4996793568134308 1.5514051914215088 -0.23606789112091064 0.11990722268819809 0.9060945510864258 -0.4056520164012909 0.16425342559814454 1.1326355457305908
-1.158542513847351 -0.17797142267227173 -2.0453011989593506 0.058320872485637665 -0.31391337513923645 -0.9476302266120911 -0.10930557548999786 0.4605890214443207
-2.771305561065674 -0.5277963876724243 -0.7830305695533752 -0.6916104555130005 -0.6446729898452759 0.3256019651889801 0.14768843352794647 0.32831162214279175
-0.8603221774101257 -0.6657419800758362 -1.2942649126052856 0.16061891615390778 -0.9031342267990112 -0.3981139659881592 -0.117887482047081 0.18557091057300568
-2.1720168590545654 0.9033613204956055 -1.2291018962860107 -0.4932706654071808 0.8149052262306213 -0.30430006980895996 0.08924630284309387 0.6685365438461304
-2.3230769634246826 -0.048744697123765945 1.4403059482574463 -0.8244270086288452 0.30640584230422974 0.4757835566997528 0.39452242851257324 0.34291163086891174
-1.0439786911010742 -0.9220405220985413 -0.8814876675605774 -0.010437330231070518 -0.9806207418441772 -0.19559313356876373 -0.025592710822820663 0.08161521703004837
-1.3605481386184692 -0.5720797777175903 1.2181694507598877 -0.08963286131620407 -0.9899594187736511 -0.10901211202144623 0.47354838252067566 0.028982969000935555
-1.2377474308013916 -0.8597844243049622 -0.5153998732566833 -0.14069032669067383 -0.9726859331130981 0.18457594513893127 0.06252408772706985 0.040593404322862625
-2.673168897628784 -0.12485575675964355 0.22879232466220856 -0.9735404253005981 -0.15311136841773987 0.16956083476543427 0.2500836253166199 0.35835444927215576
-2.6645963191986084 0.23895908892154694 0.004234421532601118 -0.9333170652389526 0.300210565328598 0.19681386649608612 0.25177204608917236 0.4700142741203308
-0.12732280790805817 -0.7761061191558838 -0.8056536912918091 0.18515579402446747 -0.9266945123672485 -0.3269753158092499 -0.16915546357631683 0.05699484050273895
-1.1926242113113403 0.34970003366470337 -2.0567827224731445 0.027344584465026855 0.31388285756111145 -0.9490340948104858 -0.08107330650091171 0.5898649096488953
1.3086862564086914 -0.6972870826721191 0.1393010914325714 -0.06939908862113953 -0.9906918406486511 -0.11685537546873093 1.250579833984375 0.23692359030246735
-2.2185165882110596 -0.6010696887969971 0.9885267019271851 -0.27588731050491333 -0.9580065011978149 -0.07797478884458542 0.3562934100627899 0.1803658902645111
-1.8149693012237549 0.5027092099189758 1.4013625383377075 -0.6509292721748352 0.6876735687255859 0.32148197293281555 0.41989022493362427 0.5725814700126648
1.083911657333374 -0.919709324836731 1.9109880924224854 -0.029206212610006332 -0.9966734647750854 -0.07583849877119064 1.0200179815292358 0.2135448306798935
-2.339744806289673 -0.456173300743103 1.404205322265625 -0.7599108815193176 -0.5287942290306091 0.37794122099876404 0.40465614199638367 0.24303966760635376
0.2308448702096939 -0.6813886761665344 -0.43120068311691284 0.2633442282676697 -0.9610278606414795 0.08374278992414474 0.5882666409015656 0.030116379261016846
-0.4708248972892761 -0.9117152094841003 3.349522829055786 -0.20068971812725067 -0.8223212361335754 0.5324259400367737 0.7516024708747864 0.28865090012550354
-1.8958410024642944 -0.7918481826782227 -1.371509313583374 -0.09866634011268616 -0.9773247241973877 -0.18726158142089844 0.00427718972787261 0.2646807134151459
-1.0120034217834473 1.081067442893982 -1.2568013668060303 0.17929624021053314 0.8046510219573975 -0.5659962892532349 -0.01468522846698761 0.8763020038604736
-1.6333023309707642 -0.48982906341552734 -1.9352561235427856 -0.056001465767621994 -0.46360668540000916 -0.8842433094978333 -0.05524259805679321 0.3827238976955414
-0.6736819744110107 1.7430667877197266 0.810950517654419 -0.3722037374973297 0.9088717103004456 0.18799401819705963 0.468045175075531 1.0330616235733032
0.6879716515541077 -0.3808019757270813 3.5996956825256348 0.29682302474975586 -0.2865993082523346 0.9108859300613403 0.8475741744041443 0.43748924136161804
-2.0538554191589355 -0.18082596361637115 2.1653122901916504 -0.9605090618133545 -0.06524857133626938 0.2703939974308014 0.48699480295181274 0.32510629296302795
-1.058958649635315 1.5640238523483276 0.45388007164001465 -0.5316324234008789 0.8325754404067993 0.15546128153800964 0.35312652587890625 0.988609790802002
-1.4629437923431396 -0.5207591652870178 0.7317485213279724 -0.17062897980213165 -0.9845576286315918 -0.038605913519859314 0.37205392122268677 0.010802372358739376
-1.527456521987915 -0.5059118866920471 2.9178853034973145 -0.7507858276367188 -0.4195684790611267 0.5101473927497864 0.5958348512649536 0.2991071939468384
-1.7026375532150269 -0.08753906935453415 2.787797451019287 -0.8034302592277527 0.15393535792827606 0.575090765953064 0.5547141432762146 0.3725844621658325
-0.8923057913780212 -0.7362858653068542 1.8491384983062744 -0.07763908803462982 -0.9777825474739075 -0.19455549120903015 0.6365487575531006 0.059753384441137314
-0.8238669633865356 -0.9046821594238281 3.1817305088043213 -0.28226569294929504 -0.8836939334869385 0.3733024001121521 0.7055917382240295 0.2631376385688782
-1.380638837814331 -0.7693943977355957 2.6749513149261475 -0.4944303631782532 -0.8575090765953064 0.1420941799879074 0.6169928908348083 0.22125545144081116
-1.7628012895584106 -0.4542337656021118 2.5245606899261475 -0.7683034539222717 -0.5336771607398987 0.35337382555007935 0.5426563620567322 0.2729763388633728
-0.8527697324752808 -0.6729446649551392 1.248077630996704 -0.10797448456287384 -0.9937132000923157 -0.02932828664779663 0.5730931758880615 -0.021382177248597145
-1.131324291229248 -0.6927380561828613 0.14037883281707764 -0.27204200625419617 -0.9447615146636963 0.1826837956905365 0.21770282089710236 -0.0452958419919014
0.012788443826138973 1.7833768129348755 1.2843635082244873 -0.00906399730592966 0.981658399105072 0.1903134286403656 0.6704012751579285 1.0347495079040527
-1.3848073482513428 -0.6983917951583862 -0.15460024774074554 -0.21005889773368835 -0.9267250299453735 0.3114413917064667 0.1520991027355194 0.029387272894382477
0.0022545659448951483 -0.10891143232584 3.721348285675049 0.039155248552560806 -0.051301613450050354 0.9978942275047302 0.7673472166061401 0.4572252631187439
-1.627979040145874 -0.5861386656761169 2.1935887336730957 -0.45634326338768005 -0.8836634159088135 0.10412915050983429 0.5397300124168396 0.19753333926200867
1.058988332748413 -0.7376579642295837 0.7748681306838989 -0.20783105492591858 -0.9564806222915649 -0.20471815764904022 1.1563456058502197 0.1291000247001648
1.7037245035171509 -0.06041136384010315 -0.3891826868057251 0.9131138324737549 0.0874965637922287 -0.3981139659881592 1.2885379791259766 0.5907865762710571
-0.40070870518684387 0.5785298943519592 3.4855945110321045 -0.3674428462982178 0.5049592852592468 0.7809991836547852 0.6888675093650818 0.555137574672699
2.1098837852478027 0.12917271256446838 1.1722428798675537 0.9803155660629272 0.19605091214179993 0.02291940152645111 1.1323909759521484 0.6819876432418823
-1.8735109567642212 -0.5041077733039856 0.7134613990783691 -0.0033875545486807823 -0.9936216473579407 -0.11255226284265518 0.32644587755203247 0.09563841670751572
1.5978131294250488 1.0983803272247314 2.131840229034424 0.7156590223312378 0.6436353921890259 0.2711874842643738 0.9521841406822205 0.8166437745094299
1.995073676109314 0.4340634346008301 1.856826663017273 0.9703970551490784 0.21872615814208984 0.10214544832706451 1.0549204349517822 0.7107492685317993
-1.5718309879302979 1.3834903240203857 -0.0706203356385231 -0.4452650547027588 0.8848841786384583 0.13653981685638428 0.22351697087287903 0.8885210156440735
0.7201554179191589 -0.7895054221153259 1.5314477682113647 -0.221442312002182 -0.9629810452461243 -0.15353861451148987 1.0118011236190796 0.09848709404468536
2.019946575164795 0.547062873840332 1.3357971906661987 0.9581896662712097 0.2844325006008148 -0.030610065907239914 1.0956029891967773 0.779136061668396
1.6525654792785645 -0.8246269822120667 2.3574392795562744 0.48930326104164124 -0.8181096911430359 0.3020416796207428 1.0276631116867065 0.37927135825157166
-0.9263244867324829 1.2596795558929443 1.3850685358047485 -0.5688650012016296 0.7229529619216919 0.39201024174690247 0.5085622668266296 0.86452317237854
-0.5610831379890442 1.136735439300537 2.2433900833129883 -0.5082857608795166 0.8174383044242859 0.2708822786808014 0.6009249687194824 0.7799571752548218
-0.6890473365783691 -0.8288987278938293 -0.0502399206161499 -0.06946012377738953 -0.9792779088020325 0.1901608258485794 0.11803007870912552 -0.09896340221166611
0.2784579396247864 -1.0478148460388184 2.9350664615631104 0.15436261892318726 -0.982665479183197 0.10257270932197571 0.8643844723701477 0.25151506066322327
1.2514631748199463 -0.6173924207687378 3.1562869548797607 0.5528122782707214 -0.5754570364952087 0.6026795506477356 0.936328113079071 0.41578710079193115
2.0408453941345215 -0.5485607981681824 1.5938012599945068 0.9091463685035706 -0.39356669783592224 0.13608203828334808 1.1154893636703491 0.46574994921684265
-1.866937279701233 1.2789306640625 -0.5956787467002869 -0.41346475481987 0.904171884059906 -0.10711997002363205 0.15530860424041748 0.8118095993995667
-0.39344221353530884 0.1479320079088211 3.7128610610961914 -0.21149326860904694 0.2062135636806488 0.9553514122962952 0.7145071625709534 0.4832339882850647
2.0319201946258545 -0.10860777646303177 1.8007053136825562 0.9923093318939209 0.02841273322701454 0.12021240592002869 1.0893537998199463 0.5839968919754028
-0.0327146053314209 -0.9371532797813416 2.4243295192718506 -0.017944883555173874 -0.9610278606414795 -0.27576524019241333 0.8337986469268799 0.14396852254867554
-0.8129991888999939 -0.04607017710804939 3.614251136779785 -0.4466688930988312 0.12933744490146637 0.8852809071540833 0.6755771040916443 0.43433213233947754
0.08372271806001663 -0.6706170439720154 1.350029706954956 -0.009094515815377235 -0.9942319989204407 -0.10684530436992645 0.8648293614387512 -0.029891127720475197
-0.8834191560745239 1.027626633644104 1.9866770505905151 -0.5446638464927673 0.7837153077125549 0.29844051599502563 0.5409024953842163 0.7648331522941589
-0.3589126765727997 -0.8033766150474548 2.052518129348755 -0.04065065458416939 -0.9670400023460388 -0.25128939747810364 0.7601189613342285 0.07251700758934021
1.9754295349121094 -0.17236661911010742 2.3015334606170654 0.9670705199241638 -0.03482161834836006 0.252082884311676 1.0375242233276367 0.5531119108200073
-1.3061600923538208 0.2589450776576996 2.995612144470215 -0.6423841118812561 0.5400860905647278 0.5436872243881226 0.5843901634216309 0.47061631083488464
0.5158590078353882 -0.6789979934692383 1.0560429096221924 -0.12311166524887085 -0.9840388298034668 -0.12833033502101898 1.0675297975540161 -0.018996501341462135
1.68366277217865 0.7117228507995605 0.381765216588974 0.7293618321418762 0.6148869395256042 -0.299844354391098 1.2118738889694214 0.8709824681282043
1.7319339513778687 0.8919507265090942 0.9420862793922424 0.7599719166755676 0.5843378901481628 -0.2844935357570648 1.1149623394012451 0.8999139070510864
-1.9685124158859253 -0.6983943581581116 -0.4387829899787903 -0.1750846952199936 -0.9503769278526306 0.25711843371391296 0.12928716838359833 0.14880385994911194
2.038912296295166 -0.08040140569210052 0.4949847459793091 0.9638050198554993 0.014862514100968838 -0.26612138748168945 1.2009130716323853 0.6438702344894409
0.9853305220603943 -0.8512795567512512 3.0353901386260986 0.26770836114883423 -0.8929105401039124 0.36188849806785583 0.9262707233428955 0.34349870681762695
1.500725269317627 -0.26420795917510986 3.089615821838379 0.670705258846283 -0.28870511054992676 0.6831873655319214 0.9444777965545654 0.49363091588020325
1.684737205505371 0.427372545003891 2.7697999477386475 0.8231146931648254 0.3161717653274536 0.47166356444358826 0.9535535573959351 0.6425753831863403
-0.1855498105287552 -0.6616294980049133 0.7748684883117676 0.05310220643877983 -0.9984740614891052 0.013061922043561935 0.7371081113815308 -0.13361556828022003
1.3317145109176636 1.1841241121292114 2.3956282138824463 0.5850398540496826 0.7293007969856262 0.35465559363365173 0.8940591812133789 0.8113276362419128
1.8461610078811646 0.7418241500854492 2.027984619140625 0.8768578171730042 0.43278297781944275 0.20926542580127716 1.0068923234939575 0.7595457434654236
1.6522165536880493 0.31779104471206665 -0.3192591071128845 0.8070314526557922 0.41004669666290283 -0.42490920424461365 1.287213683128357 0.725598156452179
0.7948695421218872 0.3140984773635864 3.475646495819092 0.30591753125190735 0.2927335500717163 0.9059114456176758 0.8388782739639282 0.5627807974815369
-0.5932518243789673 -0.6928698420524597 1.0334898233413696 0.0032349620014429092 -0.99993896484375 -0.00833155307918787 0.6200755834579468 -0.0776771679520607
-2.1512253284454346 0.028918491676449776 -1.8260138034820557 -0.45631274580955505 0.15457625687122345 -0.8762474656105042 0.010984648950397968 0.4717724323272705
-2.5172290802001953 -0.6529136300086975 -1.371496558189392 -0.5016632676124573 -0.6915494203567505 -0.5196386575698853 0.06102102994918823 0.34176650643348694
-1.868526577949524 1.1109899282455444 -1.1323903799057007 -0.29544970393180847 0.8843958973884583 -0.36124759912490845 0.08299872279167175 0.7583397626876831
-2.121431350708008 -0.5162765979766846 0.16113680601119995 -0.10116885602474213 -0.9857478737831116 0.1343729943037033 0.23176373541355133 0.14796182513237
0.37595370411872864 -0.6978447437286377 1.49018394947052 -0.12021240592002869 -0.9747611880302429 -0.18799401819705963 0.9594111442565918 0.027271920815110207
-2.661334753036499 0.27355656027793884 -1.000921607017517 -0.922849178314209 0.33057647943496704 -0.19751578569412231 0.13692407310009003 0.49710097908973694
-2.607957601547241 -0.15294185280799866 0.6800051331520081 -0.981536328792572 -0.06750693917274475 0.17883846163749695 0.3018709421157837 0.3302353322505951
-1.5801583528518677 0.925652027130127 0.9865118265151978 -0.6056398153305054 0.7060151696205139 0.3669545650482178 0.3892397880554199 0.7628524303436279
-1.1775033473968506 -0.18786881864070892 3.3851425647735596 -0.6460463404655457 0.047883540391922 0.7617725133895874 0.6324326395988464 0.3916701376438141
-0.6153299808502197 1.1291455030441284 -1.0276377201080322 0.20484024286270142 0.8099307417869568 -0.5495467782020569 -0.03578253462910652 0.992962658405304
-0.23077398538589478 0.8161199688911438 -1.2794162034988403 0.23422956466674805 0.7158727049827576 -0.6577044129371643 -0.13818776607513428 0.8989002108573914
0.28671500086784363 1.3121405839920044 -0.22714096307754517 0.335123747587204 0.8378856778144836 -0.430768758058548 0.8494657754898072 1.3489438056945802
-2.2464442253112793 0.5988429188728333 0.49848753213882446 -0.6788537502288818 0.6113772988319397 0.4065980911254883 0.31706589460372925 0.5886716246604919
-0.8739590644836426 0.7844678163528442 2.689697265625 -0.5919675230979919 0.7461165189743042 0.30466628074645996 0.5814963579177856 0.6382004022598267
-0.3071193993091583 1.8012033700942993 0.41782447695732117 0.10516678541898727 0.9742729067802429 -0.1991637945175171 0.46799907088279724 1.1367980241775513
0.3987240493297577 1.4155327081680298 0.024101056158542633 0.3628345727920532 0.8522293567657471 -0.37687307596206665 1.2678160667419434 1.2715624570846558
-2.05531907081604 0.5700773000717163 0.8550499081611633 -0.6601763963699341 0.6469923853874207 0.3814203441143036 0.36468881368637085 0.5953798294067383
0.10488758981227875 0.9718872308731079 3.467831611633301 0.06454664468765259 0.6675924062728882 0.7416913509368896 0.7443344593048096 0.6420678496360779
-0.5570146441459656 1.662173867225647 1.2032034397125244 -0.37821587920188904 0.8471938371658325 0.3730582594871521 0.5547850131988525 0.9857503771781921
-1.3256592750549316 0.8293056488037109 1.5917713642120361 -0.5981322526931763 0.7398297190666199 0.3079317510128021 0.46145394444465637 0.7140496969223022
-0.8783100843429565 -0.5488147735595703 3.4928524494171143 -0.3894467055797577 -0.4220099449157715 0.8186284899711609 0.6892381310462952 0.34688377380371094
-0.4897626042366028 1.0999733209609985 2.5869593620300293 -0.5509811639785767 0.8197882175445557 0.15598009526729584 0.6333593130111694 0.7316604256629944
-2.4348247051239014 0.6571702361106873 0.09026041626930237 -0.7712027430534363 0.5794854760169983 0.2634357810020447 0.26691386103630066 0.595159649848938
0.08203767240047455 -0.9409261345863342 3.3164501190185547 0.08609271794557571 -0.8548845052719116 0.5115817785263062 0.8198515176773071 0.30404338240623474
-2.378964900970459 0.8387603759765625 -0.4313773810863495 -0.7818536758422852 0.6122623085975647 0.11746574193239212 0.21083571016788483 0.6472275257110596
-0.5127249360084534 -0.43099722266197205 3.684501886367798 -0.21262244880199432 -0.2921231687068939 0.9324319958686829 0.7304567694664001 0.3861570954322815
-1.1259958744049072 1.3481389284133911 0.9287208914756775 -0.6014587879180908 0.7284768223762512 0.32789087295532227 0.4161849319934845 0.9070440530776978
0.08709944784641266 1.7046095132827759 0.5079218149185181 0.33783990144729614 0.9098483324050903 -0.24088259041309357 0.6090531349182129 1.1511601209640503
-0.6517093777656555 0.7498047947883606 3.202247381210327 -0.5779290199279785 0.6122012734413147 0.539597749710083 0.642943799495697 0.5957798361778259
-1.393406629562378 0.9973377585411072 -1.4623068571090698 0.03628650680184364 0.8063295483589172 -0.5903195142745972 0.001646604621782899 0.7792527675628662
0.6873495578765869 -0.6275970935821533 0.6782613396644592 -0.13263344764709473 -0.981597363948822 -0.13715018332004547 1.1729378700256348 0.02731441520154476
3 0 146 84
3 0 225 146
3 242 205 193
3 242 157 135
3 189 125 199
3 120 2 240
3 2 121 240
3 3 249 193
3 4 5 199
3 5 247 245
3 8 7 17
3 8 61 7
3 6 91 122
3 6 17 252
3 7 225 252
3 154 6 122
3 8 17 66
3 23 8 124
3 16 92 77
3 12 53 52
3 35 56 53
3 41 48 32
3 42 15 33
3 52 53 45
3 15 34 33
3 30 51 29
3 34 15 92
3 16 34 92
3 35 53 12
3 15 42 92
3 106 25 90
3 104 71 19
3 45 53 43
3 42 102 68
3 61 23 84
3 228 124 18
3 67 36 38
3 75 30 29
3 36 44 38
3 23 61 8
3 55 98 168
3 51 63 67
3 42 33 38
3 68 37 92
3 7 146 225
3 84 146 61
3 64 97 31
3 0 4 199
3 34 67 33
3 242 135 116
3 3 241 165
3 37 77 92
3 0 1 247
3 36 67 63
3 67 29 51
3 102 60 68
3 34 29 67
3 1 123 247
3 51 45 43
3 87 80 9
3 65 103 49
3 68 92 42
3 47 63 43
3 33 67 38
3 11 189 5
3 11 40 95
3 241 3 193
3 56 46 74
3 51 43 63
3 39 79 71
3 86 45 51
3 64 115 48
3 109 25 106
3 110 70 107
3 40 11 5
3 70 137 107
3 95 249 168
3 114 100 94
3 86 30 97
3 97 64 52
3 45 86 52
3 82 39 114
3 118 117 70
3 86 51 30
3 19 113 107
3 136 109 39
3 81 41 32
3 97 30 75
3 14 79 109
3 86 97 52
3 114 39 71
3 113 19 71
3 115 64 31
3 118 37 68
3 136 121 112
3 230 95 40
3 109 106 14
3 94 82 114
3 117 119 137
3 113 93 107
3 168 27 55
3 79 39 109
3 114 71 104
3 1 84 228
3 88 94 100
3 100 114 104
3 115 32 48
3 228 24 123
3 228 18 24
3 27 101 55
3 115 78 32
3 23 228 84
3 145 62 47
3 148 22 150
3 95 230 249
3 87 167 134
3 139 62 145
3 137 104 19
3 133 44 36
3 18 144 24
3 17 7 252
3 118 70 110
3 143 44 62
3 119 104 137
3 137 19 107
3 62 133 47
3 189 199 5
3 136 39 82
3 58 148 150
3 240 82 120
3 166 112 105
3 82 94 120
3 69 166 105
3 44 122 38
3 125 55 21
3 133 36 63
3 242 116 205
3 59 125 21
3 189 55 125
3 44 143 122
3 27 168 165
3 122 91 38
3 90 132 50
3 133 62 44
3 167 57 134
3 133 63 47
3 144 20 24
3 240 121 136
3 83 151 20
3 4 247 5
3 95 98 189
3 82 240 136
3 121 2 184
3 249 3 165
3 57 135 134
3 139 145 58
3 151 24 20
3 22 148 145
3 22 145 47
3 139 143 62
3 137 70 117
3 212 58 150
3 47 153 22
3 123 1 228
3 154 122 143
3 56 160 53
3 43 160 74
3 28 178 119
3 217 56 35
3 164 138 66
3 0 247 4
3 65 147 103
3 8 223 124
3 6 252 91
3 202 206 10
3 148 58 145
3 80 186 149
3 80 149 9
3 150 179 212
3 195 177 179
3 248 243 173
3 25 69 197
3 208 231 89
3 130 177 195
3 186 156 83
3 88 194 94
3 23 124 228
3 141 144 18
3 0 199 225
3 41 182 48
3 126 202 99
3 141 58 212
3 171 57 167
3 98 95 168
3 196 85 69
3 40 5 245
3 58 162 139
3 172 176 72
3 138 164 139
3 2 120 184
3 177 54 179
3 209 41 190
3 189 11 95
3 127 116 135
3 147 65 159
3 160 56 74
3 178 88 100
3 179 54 212
3 126 173 73
3 156 80 159
3 147 134 103
3 153 74 22
3 195 74 46
3 174 73 173
3 179 150 195
3 174 173 129
3 246 69 105
3 54 169 186
3 0 84 1
3 27 237 101
3 126 73 172
3 172 73 9
3 153 47 43
3 195 22 74
3 242 193 76
3 172 9 149
3 66 154 143
3 127 57 171
3 74 153 43
3 132 197 13
3 130 195 46
3 6 154 17
3 178 104 119
3 73 174 9
3 27 165 237
3 98 55 189
3 195 150 22
3 130 54 177
3 25 166 69
3 178 100 104
3 186 80 156
3 160 43 53
3 159 80 87
3 161 173 126
3 223 8 66
3 176 149 130
3 157 134 135
3 157 103 134
3 162 138 139
3 57 127 135
3 172 149 176
3 164 143 139
3 238 118 234
3 69 214 197
3 14 216 50
3 191 185 108
3 205 88 193
3 212 128 141
3 213 78 115
3 173 161 248
3 89 251 236
3 211 110 107
3 222 72 176
3 219 113 187
3 229 65 49
3 161 105 248
3 202 10 85
3 239 230 40
3 61 146 7
3 128 144 141
3 191 188 201
3 242 76 230
3 128 212 20
3 94 244 120
3 158 10 190
3 131 110 77
3 209 182 41
3 219 187 14
3 185 78 108
3 91 163 232
3 142 55 101
3 187 113 218
3 154 66 17
3 151 229 49
3 219 14 50
3 112 221 136
3 161 99 246
3 205 236 194
3 68 234 118
3 207 50 132
3 134 147 159
3 159 87 134
3 26 192 81
3 127 208 236
3 127 236 116
3 141 162 58
3 159 65 83
3 143 164 66
3 83 156 159
3 249 230 76
3 237 250 96
3 229 151 83
3 210 111 77
3 152 245 123
3 215 132 90
3 226 20 212
3 243 129 173
3 214 69 85
3 241 178 28
3 169 149 186
3 75 183 97
3 138 224 124
3 161 126 99
3 31 213 115
3 158 85 10
3 203 231 248
3 200 184 89
3 226 83 20
3 26 207 132
3 230 239 157
3 191 211 93
3 220 16 77
3 211 108 210
3 46 217 130
3 111 220 77
3 169 54 130
3 161 246 105
3 192 26 132
3 183 220 111
3 182 12 48
3 208 89 236
3 208 171 231
3 205 116 236
3 152 123 24
3 202 85 196
3 221 112 25
3 216 14 106
3 217 204 72
3 221 109 136
3 155 48 12
3 184 200 121
3 50 207 201
3 188 50 201
3 206 72 10
3 231 203 89
3 215 25 197
3 13 192 132
3 243 248 231
3 196 246 99
3 163 59 232
3 48 155 64
3 200 203 248
3 49 152 151
3 152 24 151
3 158 41 81
3 241 28 165
3 250 28 119
3 232 21 60
3 216 90 50
3 219 93 113
3 218 71 79
3 211 191 108
3 252 225 59
3 188 191 219
3 211 210 110
3 233 91 232
3 208 127 171
3 37 131 77
3 214 13 197
3 132 215 197
3 203 200 89
3 60 142 96
3 167 175 171
3 21 232 59
3 13 214 85
3 204 217 209
3 131 37 118
3 96 234 60
3 142 60 21
3 93 219 191
3 217 46 56
3 120 251 184
3 142 21 55
3 13 158 81
3 183 16 220
3 78 185 201
3 130 222 176
3 192 13 81
3 124 223 138
3 183 75 16
3 25 215 90
3 226 186 83
3 14 218 79
3 210 108 111
3 25 112 166
3 204 10 72
3 149 169 130
3 202 196 99
3 233 38 91
3 42 233 102
3 110 131 118
3 224 138 162
3 241 88 178
3 222 130 217
3 213 111 108
3 65 229 83
3 223 66 138
3 209 227 204
3 245 49 235
3 35 209 217
3 224 162 141
3 224 18 124
3 249 165 168
3 226 54 186
3 54 226 212
3 185 191 201
3 247 123 245
3 213 108 78
3 236 244 194
3 50 188 219
3 109 221 25
3 196 69 246
3 155 52 64
3 239 49 103
3 199 125 59
3 232 60 102
3 210 77 110
3 239 40 235
3 233 42 38
3 129 243 231
3 28 237 165
3 142 101 96
3 144 128 20
3 118 238 117
3 234 68 60
3 158 13 85
3 213 31 111
3 52 155 12
3 71 218 113
3 249 76 193
3 199 59 225
3 183 31 97
3 237 96 101
3 238 96 117
3 250 237 28
3 14 187 218
3 205 194 88
3 239 103 157
3 241 193 88
3 96 238 234
3 183 111 31
3 251 89 184
3 211 107 93
3 244 236 120
3 244 94 194
3 245 152 49
3 224 141 18
3 233 232 102
3 245 235 40
3 90 216 106
3 157 242 230
3 250 117 96
3 250 119 117
3 251 120 236
3 252 59 163
3 72 222 217
3 252 163 91
3 158 190 41
3 239 235 49
3 207 26 201
3 170 129 231
3 10 227 190
3 253 12 182
3 206 172 72
3 180 200 248
3 227 209 190
3 198 32 78
3 75 140 16
3 180 105 112
3 181 9 174
3 206 126 172
3 253 209 35
3 32 198 81
3 180 248 105
3 175 167 87
3 180 112 121
3 12 253 35
3 175 181 174
3 227 10 204
3 129 170 174
3 140 34 16
3 34 140 29
3 198 201 26
3 198 26 81
3 170 175 174
3 200 180 121
3 170 231 171
3 209 253 182
3 206 202 126
3 140 75 29
3 9 181 87
3 198 78 201
3 181 175 87
3 170 171 175
